<?xml version="1.0" encoding="UTF-8"?>
<svg width="110px" height="22px" viewBox="0 0 110 22" version="1.1" xmlns="http://www.w3.org/2000/svg" xmlns:xlink="http://www.w3.org/1999/xlink">
    <!-- Generator: sketchtool 51.2 (57519) - http://www.bohemiancoding.com/sketch -->
    <title>icons</title>
    <desc>Created with sketchtool.</desc>
    <defs></defs>
    <g id="exports/slices/planceholder/land" stroke="none" stroke-width="1" fill="none" fill-rule="evenodd">
        <g id="SWIPEBOX" transform="translate(-25.000000, -20.000000)" fill="#FFFFFF" fill-rule="nonzero">
            <g id="icons" transform="translate(25.000000, 20.000000)">
                <path d="M16.384,17.705 C16.384,18.0623333 16.259,18.366 16.009,18.616 L14.188,20.437 C13.938,20.687 13.6343333,20.812 13.277,20.812 C12.9196667,20.812 12.616,20.687 12.366,20.437 L8.428,16.499 L4.49,20.437 C4.24,20.687 3.93633333,20.812 3.579,20.812 C3.22166667,20.812 2.918,20.687 2.668,20.437 L0.847,18.616 C0.597,18.366 0.472,18.0623333 0.472,17.705 C0.472,17.3476667 0.597,17.044 0.847,16.794 L4.785,12.856 L0.847,8.918 C0.597,8.668 0.472,8.36433333 0.472,8.007 C0.472,7.64966667 0.597,7.346 0.847,7.096 L2.668,5.275 C2.918,5.025 3.22166667,4.9 3.579,4.9 C3.93633333,4.9 4.24,5.025 4.49,5.275 L8.428,9.213 L12.366,5.275 C12.616,5.025 12.9196667,4.9 13.277,4.9 C13.6343333,4.9 13.938,5.025 14.188,5.275 L16.009,7.096 C16.259,7.346 16.384,7.64966667 16.384,8.007 C16.384,8.36433333 16.259,8.668 16.009,8.918 L12.071,12.856 L16.009,16.794 C16.259,17.044 16.384,17.3476667 16.384,17.705 Z M56.938,21.067 L48.206,12.348 C47.8753333,12.0173333 47.71,11.6133333 47.71,11.136 C47.71,10.6586667 47.8753333,10.2546667 48.206,9.924 L56.938,1.205 C57.2686667,0.874333333 57.6726667,0.709 58.15,0.709 C58.6273333,0.709 59.0313333,0.874333333 59.362,1.205 L60.366,2.209 C60.6966667,2.53966667 60.862,2.94366667 60.862,3.421 C60.862,3.89833333 60.6966667,4.30233333 60.366,4.633 L53.857,11.142 L60.366,17.638 C60.6966667,17.9773333 60.862,18.3836667 60.862,18.857 C60.862,19.3303333 60.6966667,19.732 60.366,20.062 L59.362,21.066 C59.0313333,21.3966667 58.6273333,21.562 58.15,21.562 C57.6726667,21.562 57.2686667,21.3966667 56.938,21.066 L56.938,21.067 Z M109.719,11.143 C109.719,11.607 109.553667,12.0133333 109.223,12.362 L100.491,21.081 C100.160333,21.4116667 99.7586667,21.577 99.286,21.577 C98.8133333,21.577 98.4116667,21.4116667 98.081,21.081 L97.063,20.077 C96.7323333,19.729 96.567,19.3226667 96.567,18.858 C96.567,18.3846667 96.7323333,17.983 97.063,17.653 L103.572,11.144 L97.063,4.648 C96.7323333,4.3 96.567,3.89366667 96.567,3.429 C96.567,2.95566667 96.7323333,2.554 97.063,2.224 L98.081,1.22 C98.4023333,0.880666667 98.804,0.711 99.286,0.711 C99.768,0.711 100.169667,0.880666667 100.491,1.22 L109.223,9.939 C109.553667,10.2696667 109.719,10.6713333 109.719,11.144 L109.719,11.143 Z" id="Shape"></path>
            </g>
        </g>
    </g>
</svg>