<?xml version="1.0" encoding="UTF-8"?>
<svg width="1107px" height="161px" viewBox="0 0 1107 161" version="1.1" xmlns="http://www.w3.org/2000/svg" xmlns:xlink="http://www.w3.org/1999/xlink">
    <!-- Generator: sketchtool 43.1 (39012) - http://www.bohemiancoding.com/sketch -->
    <title>logo-v-black</title>
    <desc>Created with sketchtool.</desc>
    <defs></defs>
    <g id="exports/slices/planceholder/land" stroke="none" stroke-width="1" fill="none" fill-rule="evenodd">
        <g id="BASE" transform="translate(-1299.000000, -1153.000000)" fill="#000000">
            <g id="logo-v-black" transform="translate(1299.000000, 1153.000000)">
                <polygon id="Fill-1" points="2.40882078 2.09463043 0.000959307359 9.19441304 24.5904052 9.19441304 24.5904052 73.6424565 32.4207515 73.6424565 32.4207515 9.19441304 54.5975394 9.19441304 57.0030026 2.09463043"></polygon>
                <polygon id="Fill-2" points="98.1666416 3.59326087 105.99459 1.1923913 105.99459 73.6417391 98.1666416 73.6417391"></polygon>
                <polygon id="Fill-3" points="218.213405 0.99176087 232.564643 73.6419783 224.734297 73.6419783 215.301907 22.5063261 190.71486 71.3415435 166.223743 22.5063261 156.5875 73.6419783 148.759552 73.6419783 163.312245 1.19263043 190.71486 54.3298043"></polygon>
                <polygon id="Fill-4" points="319.296821 66.5400435 316.888959 73.6422174 275.334163 73.6422174 275.334163 1.79308696 319.296821 1.79308696 316.888959 8.90004348 283.166907 8.90004348 283.166907 34.4152609 312.972587 34.4152609 310.564726 41.4241739 283.166907 41.4241739 283.166907 66.5400435"></polygon>
                <g id="Group-33" transform="translate(408.705628, 0.015065)">
                    <path d="M8.86503723,39.1043696 L20.1033229,39.1043696 C31.7493143,39.1043696 38.1694788,33.9008913 38.1694788,24.1898043 C38.1694788,14.5839348 31.7493143,9.28241304 20.1033229,9.28241304 L8.86503723,9.28241304 L8.86503723,39.1043696 Z M46.1940848,24.1898043 C46.1940848,38.9058913 36.8624225,46.2113261 20.1033229,46.2113261 L8.86503723,46.2113261 L8.86503723,73.6276304 L0.933963636,73.6276304 L0.933963636,2.17784783 L20.1033229,2.17784783 C36.5602407,2.17784783 46.1940848,9.88263043 46.1940848,24.1898043 L46.1940848,24.1898043 Z" id="Fill-5"></path>
                    <path d="M94.2891991,35.0013696 L107.530039,35.0013696 C117.267009,35.0013696 125.195684,32.0959348 125.195684,22.0907174 C125.195684,11.9826739 117.267009,9.18006522 107.530039,9.18006522 L94.2891991,9.18006522 L94.2891991,35.0013696 Z M133.222688,22.0907174 C133.222688,34.2002826 126.596273,39.3057174 117.571589,41.204413 L137.141459,69.8283261 L131.11461,74.7233261 L109.242403,42.1083261 L107.530039,42.1083261 L94.2891991,42.1083261 L94.2891991,73.6257174 L86.3605238,73.6257174 L86.3605238,2.0778913 L107.530039,2.0778913 C121.183381,2.0778913 133.222688,5.77963043 133.222688,22.0907174 L133.222688,22.0907174 Z" id="Fill-7"></path>
                    <path d="M241.330872,37.8013478 C241.330872,21.3874348 228.284292,7.58004348 211.824976,7.58004348 C195.363261,7.58004348 182.31908,21.3874348 182.31908,37.8013478 C182.31908,54.3133043 195.363261,68.0250435 211.824976,68.0250435 C228.284292,68.0250435 241.330872,54.3133043 241.330872,37.8013478 M174.287279,37.8013478 C174.287279,17.1906957 191.149504,0.377434783 211.824976,0.377434783 C232.392526,0.377434783 249.360274,17.1906957 249.360274,37.8013478 C249.360274,58.4167826 232.392526,75.2276522 211.824976,75.2276522 C191.149504,75.2276522 174.287279,58.4167826 174.287279,37.8013478" id="Fill-9"></path>
                    <path d="M300.460659,39.1043696 L311.701343,39.1043696 C323.340139,39.1043696 329.762702,33.9008913 329.762702,24.1898043 C329.762702,14.5839348 323.340139,9.28241304 311.701343,9.28241304 L300.460659,9.28241304 L300.460659,39.1043696 Z M337.789706,24.1898043 C337.789706,38.9058913 328.460442,46.2113261 311.701343,46.2113261 L300.460659,46.2113261 L300.460659,73.6276304 L292.529585,73.6276304 L292.529585,2.17784783 L311.701343,2.17784783 C328.155862,2.17784783 337.789706,9.88263043 337.789706,24.1898043 L337.789706,24.1898043 Z" id="Fill-11"></path>
                    <polygon id="Fill-13" points="421.912808 66.5249783 419.502548 73.6271522 377.947752 73.6271522 377.947752 1.77802174 421.912808 1.77802174 419.502548 8.88497826 385.778098 8.88497826 385.778098 34.4001957 415.588574 34.4001957 413.178314 41.4091087 385.778098 41.4091087 385.778098 66.5249783"></polygon>
                    <path d="M468.990577,35.0013696 L482.236213,35.0013696 C491.977979,35.0013696 499.909053,32.0959348 499.909053,22.0907174 C499.909053,11.9826739 491.977979,9.18006522 482.236213,9.18006522 L468.990577,9.18006522 L468.990577,35.0013696 Z M507.924066,22.0907174 C507.924066,34.2002826 501.309642,39.3057174 492.280161,41.204413 L511.850031,69.8283261 L505.827979,74.7233261 L483.948577,42.1083261 L482.236213,42.1083261 L468.990577,42.1083261 L468.990577,73.6257174 L461.059503,73.6257174 L461.059503,2.0778913 L482.236213,2.0778913 C495.884758,2.0778913 507.924066,5.77963043 507.924066,22.0907174 L507.924066,22.0907174 Z" id="Fill-15"></path>
                    <polygon id="Fill-17" points="579.409252 9.18030435 579.409252 73.6259565 571.576507 73.6259565 571.576507 9.18030435 546.994256 9.18030435 549.392525 2.07813043 603.991503 2.07813043 601.583642 9.18030435"></polygon>
                    <polygon id="Fill-19" points="672.656086 73.6264348 664.725012 73.6264348 664.725012 41.4083913 639.339341 3.57795652 647.162493 1.17708696 668.739713 33.6007826 690.218605 1.17708696 698.041757 3.57795652 672.656086 41.4083913"></polygon>
                    <path d="M23.7299844,160.322935 C12.012045,160.322935 2.45014892,150.793587 2.45014892,139.107283 C2.45014892,127.425761 12.012045,117.89163 23.7299844,117.89163 C23.7299844,117.89163 30.1021835,117.607065 36.0786684,121.863587 L36.0786684,127.590761 C36.0786684,127.590761 31.6946338,121.973587 23.7299844,121.973587 C14.3983221,121.973587 7.00446061,129.802717 7.00446061,139.107283 C7.00446061,148.469239 14.3983221,156.236196 23.7299844,156.236196 C31.2389628,156.236196 35.5678372,151.247935 36.02111,150.678804 L36.02111,156.40837 C30.1021835,160.6075 23.7299844,160.322935 23.7299844,160.322935" id="Fill-21"></path>
                    <polygon id="Fill-23" points="111.603018 155.444674 110.2432 159.41663 86.6850095 159.41663 86.6850095 119.594239 91.1218061 118.231196 91.1218061 155.444674"></polygon>
                    <path d="M161.075458,119.705913 L165.519449,118.345261 L165.519449,142.793957 C165.519449,148.695696 166.994384,156.637217 177.011952,156.637217 C187.022324,156.637217 188.043986,148.695696 188.043986,142.793957 L188.043986,119.705913 L192.483181,118.345261 L192.483181,142.793957 C192.428021,152.208522 189.92183,160.606783 177.011952,160.606783 C164.094878,160.606783 161.022696,152.265913 161.075458,142.793957 L161.075458,119.705913 Z" id="Fill-25"></path>
                    <path d="M249.244678,154.991522 L258.744219,154.991522 C263.523968,154.991522 267.056617,151.583913 267.056617,147.387174 C267.056617,143.192826 263.523968,139.787609 258.744219,139.787609 L249.244678,139.787609 L249.244678,154.991522 Z M249.244678,135.363696 L257.314851,135.363696 C262.38479,135.363696 265.226739,133.378913 265.226739,129.124783 C265.226739,124.925652 262.38479,123.163261 257.314851,123.163261 L249.244678,123.163261 L249.244678,135.363696 Z M269.723492,129.124783 C269.723492,133.548696 268.073483,136.042826 264.826228,137.518261 C269.037587,139.218478 271.543777,142.171739 271.543777,147.387174 C271.543777,154.991522 265.629648,159.417826 257.314851,159.417826 L244.800687,159.417826 L244.800687,118.686739 L257.314851,118.686739 C265.629648,118.686739 269.723492,122.371739 269.723492,129.124783 L269.723492,129.124783 Z" id="Fill-27"></path>
                    <path d="M302.022891,121.158391 L304.178934,121.158391 C305.768986,121.158391 307.061653,120.689696 307.061653,119.056435 C307.061653,117.411217 305.768986,116.952087 304.178934,116.952087 L302.022891,116.952087 L302.022891,121.158391 Z M308.366311,119.056435 C308.366311,121.029261 307.284692,121.863826 305.812155,122.174696 L309.006648,126.830565 L308.016164,127.629261 L304.457133,122.315783 L304.178934,122.315783 L302.022891,122.315783 L302.022891,127.452304 L300.737419,127.452304 L300.737419,115.80187 L304.178934,115.80187 C306.402129,115.80187 308.366311,116.40687 308.366311,119.056435 L308.366311,119.056435 Z" id="Fill-29"></path>
                    <path d="M304.866278,107.992109 C297.278157,107.992109 291.105014,114.147326 291.105014,121.715804 C291.105014,129.2795 297.278157,135.434717 304.866278,135.434717 C312.459196,135.434717 318.639533,129.2795 318.639533,121.715804 C318.639533,114.147326 312.459196,107.992109 304.866278,107.992109 M304.866278,137.634717 C296.064633,137.634717 288.901005,130.491891 288.901005,121.715804 C288.901005,112.937326 296.064633,105.7945 304.866278,105.7945 C313.670321,105.7945 320.833949,112.937326 320.833949,121.715804 C320.833949,130.491891 313.670321,137.634717 304.866278,137.634717" id="Fill-31"></path>
                </g>
            </g>
        </g>
    </g>
</svg>