<?xml version="1.0" standalone="no"?>
<!DOCTYPE svg PUBLIC "-//W3C//DTD SVG 20010904//EN"
 "http://www.w3.org/TR/2001/REC-SVG-20010904/DTD/svg10.dtd">
<svg version="1.0" xmlns="http://www.w3.org/2000/svg"
 width="363.000000pt" height="363.000000pt" viewBox="0 0 363.000000 363.000000"
 preserveAspectRatio="xMidYMid meet">
<metadata>
Created by potrace 1.11, written by Peter Selinger 2001-2013
</metadata>
<g transform="translate(0.000000,363.000000) scale(0.100000,-0.100000)"
fill="#000000" stroke="none">
<path d="M0 1815 l0 -1815 1815 0 1815 0 0 1815 0 1815 -1815 0 -1815 0 0
-1815z m2100 1395 c175 -11 377 -38 497 -65 186 -42 188 -130 6 -189 -38 -12
-75 -26 -84 -31 -24 -14 -639 -1028 -639 -1053 0 -25 616 -808 726 -924 77
-81 104 -128 104 -185 0 -81 -92 -182 -217 -239 -185 -85 -374 -118 -663 -118
-306 0 -513 38 -681 125 -89 47 -172 127 -187 182 -31 111 80 237 279 318 l78
31 189 311 c104 172 196 326 205 342 14 28 57 175 57 195 0 12 -804 1034 -863
1097 -41 44 -32 75 31 107 82 42 441 103 552 94 l45 -3 -32 -17 c-17 -10 -73
-22 -125 -28 -125 -14 -206 -27 -310 -51 -48 -10 -99 -19 -113 -19 -18 0 -25
-5 -25 -20 0 -19 55 -40 208 -80 50 -13 44 -15 257 119 168 105 186 110 380
111 88 0 234 -5 325 -10z"/>
<path d="M1442 3076 c-68 -41 -128 -78 -134 -84 -8 -8 34 -9 138 -5 82 3 151
7 152 9 3 2 -28 154 -32 154 0 0 -57 -33 -124 -74z"/>
<path d="M1620 3133 c1 -10 7 -43 14 -73 10 -43 17 -56 34 -58 11 -2 169 4
349 12 180 9 346 16 367 16 22 0 37 3 34 6 -6 6 -740 114 -775 114 -15 0 -23
-6 -23 -17z"/>
<path d="M1960 3144 c40 -10 586 -82 592 -78 44 27 -92 55 -357 74 -136 10
-266 12 -235 4z"/>
<path d="M2625 3080 c-3 -5 0 -10 9 -10 8 0 23 -3 33 -6 16 -5 16 -4 -1 10
-23 19 -32 20 -41 6z"/>
<path d="M2000 2970 c-184 -10 -336 -18 -338 -19 -2 0 0 -5 3 -11 19 -30 776
7 835 41 21 12 -106 9 -500 -11z"/>
<path d="M1052 2920 c2 -4 172 -224 378 -488 225 -288 379 -477 384 -471 6 5
1 47 -12 106 -12 54 -55 250 -96 437 -41 186 -78 342 -83 346 -4 5 -118 20
-252 35 -134 14 -261 29 -283 34 -21 5 -38 5 -36 1z"/>
<path d="M1513 2923 c15 -2 39 -2 55 0 15 2 2 4 -28 4 -30 0 -43 -2 -27 -4z"/>
<path d="M2277 2881 c-105 -12 -152 -22 -163 -33 -23 -22 -275 -877 -265 -896
6 -10 25 14 69 84 165 269 522 857 522 860 0 2 -3 3 -7 3 -5 -1 -74 -9 -156
-18z"/>
<path d="M1660 2823 c5 -21 43 -193 85 -382 41 -190 77 -347 79 -349 2 -2 9
12 14 30 21 66 212 726 212 732 0 3 -90 6 -199 6 l-199 0 8 -37z"/>
<path d="M1801 1749 c-17 -30 -40 -79 -52 -109 -32 -84 -161 -521 -156 -526 3
-3 93 -2 201 2 173 6 196 9 192 23 -3 9 -35 158 -72 331 -36 173 -70 319 -74
324 -5 4 -22 -16 -39 -45z"/>
<path d="M1910 1729 c0 -27 123 -584 131 -593 4 -5 57 -17 117 -27 60 -10 153
-32 207 -49 53 -18 98 -30 100 -28 2 2 -69 96 -158 209 -89 112 -215 271 -279
353 -65 82 -118 143 -118 135z"/>
<path d="M1636 1458 c-23 -36 -214 -356 -226 -379 -11 -20 -10 -21 22 -14 85
17 105 26 116 49 5 13 31 95 57 182 25 88 48 165 50 172 7 19 -3 14 -19 -10z"/>
<path d="M1700 1060 c-134 -12 -299 -46 -321 -66 -31 -28 -241 -383 -237 -401
7 -42 195 -109 390 -140 111 -18 463 -24 551 -10 43 8 47 11 47 35 0 28 -114
570 -122 577 -9 10 -220 13 -308 5z"/>
<path d="M2070 1056 c0 -39 121 -562 133 -573 13 -13 27 -11 113 11 237 63
389 179 370 282 -15 78 -166 183 -336 234 -102 30 -280 60 -280 46z"/>
<path d="M1209 967 c-36 -18 -83 -46 -104 -63 -47 -36 -95 -109 -95 -144 0
-27 52 -110 69 -110 4 0 56 79 114 175 59 96 101 175 94 175 -6 0 -42 -15 -78
-33z"/>
</g>
</svg>
