<?xml version="1.0" encoding="UTF-8"?>
<svg width="200px" height="29px" viewBox="0 0 200 29" version="1.1" xmlns="http://www.w3.org/2000/svg" xmlns:xlink="http://www.w3.org/1999/xlink">
    <!-- Generator: sketchtool 46.2 (44496) - http://www.bohemiancoding.com/sketch -->
    <title>time-logo</title>
    <desc>Created with sketchtool.</desc>
    <defs></defs>
    <g id="exports/slices/planceholder/land" stroke="none" stroke-width="1" fill="none" fill-rule="evenodd">
        <g id="BASE" transform="translate(-1536.000000, -834.000000)" fill="#FEFEFE">
            <g id="time-logo" transform="translate(1536.000000, 834.000000)">
                <g id="Group-2">
                    <polygon id="Fill-1" points="0.434805195 0.378092136 0.000173160173 1.65964134 4.4387013 1.65964134 4.4387013 13.2928622 5.85212121 13.2928622 5.85212121 1.65964134 9.85515152 1.65964134 10.2893506 0.378092136"></polygon>
                    <polygon id="Fill-2" points="17.7196104 0.648603045 19.1325974 0.215233087 19.1325974 13.2927327 17.7196104 13.2927327"></polygon>
                    <polygon id="Fill-3" points="39.3887013 0.179018208 41.9791775 13.2927759 40.5657576 13.2927759 38.8631602 4.06251373 34.4250649 12.8775349 30.0042857 4.06251373 28.2648918 13.2927759 26.8519048 13.2927759 29.4787446 0.215276252 34.4250649 9.80682389"></polygon>
                    <polygon id="Fill-4" points="57.6348052 12.0108382 57.2001732 13.292819 49.6993074 13.292819 49.6993074 0.323661906 57.6348052 0.323661906 57.2001732 1.60650604 51.1131602 1.60650604 51.1131602 6.21214095 56.4932468 6.21214095 56.0586147 7.47728771 51.1131602 7.47728771 51.1131602 12.0108382"></polygon>
                </g>
                <g id="Group-33" transform="translate(73.826715, 0.000000)">
                    <path d="M1.60018723,7.05855046 L3.62875865,7.05855046 C5.73092316,7.05855046 6.88979762,6.11929446 6.88979762,4.36639068 C6.88979762,2.6324792 5.73092316,1.67552582 3.62875865,1.67552582 L1.60018723,1.67552582 L1.60018723,7.05855046 Z M8.33828246,4.36639068 C8.33828246,7.02272406 6.65386688,8.3413946 3.62875865,8.3413946 L1.60018723,8.3413946 L1.60018723,13.290186 L0.168585494,13.290186 L0.168585494,0.393113326 L3.62875865,0.393113326 C6.59932142,0.393113326 8.33828246,1.78386831 8.33828246,4.36639068 L8.33828246,4.36639068 Z" id="Fill-5"></path>
                    <path d="M17.019711,6.31793674 L19.4097543,6.31793674 C21.1673301,6.31793674 22.5984989,5.79349003 22.5984989,3.98749411 C22.5984989,2.16293753 21.1673301,1.65705148 19.4097543,1.65705148 L17.019711,1.65705148 L17.019711,6.31793674 Z M24.0474167,3.98749411 C24.0474167,6.17333621 22.8513128,7.09489484 21.2223084,7.43761968 L24.754776,12.604391 L23.6668972,13.487965 L19.7188452,7.60078088 L19.4097543,7.60078088 L17.019711,7.60078088 L17.019711,13.2898407 L15.5885422,13.2898407 L15.5885422,0.375070633 L19.4097543,0.375070633 C21.8742565,0.375070633 24.0474167,1.04325459 24.0474167,3.98749411 L24.0474167,3.98749411 Z" id="Fill-7"></path>
                    <path d="M43.5615292,6.82334798 C43.5615292,3.86054779 41.2065509,1.36823889 38.2355552,1.36823889 C35.2641266,1.36823889 32.9095812,3.86054779 32.9095812,6.82334798 C32.9095812,9.80384555 35.2641266,12.2788887 38.2355552,12.2788887 C41.2065509,12.2788887 43.5615292,9.80384555 43.5615292,6.82334798 M31.4597976,6.82334798 C31.4597976,3.10301366 34.5035206,0.0681290221 38.2355552,0.0681290221 C41.9481093,0.0681290221 45.0108799,3.10301366 45.0108799,6.82334798 C45.0108799,10.5445456 41.9481093,13.5789986 38.2355552,13.5789986 C34.5035206,13.5789986 31.4597976,10.5445456 31.4597976,6.82334798" id="Fill-9"></path>
                    <path d="M54.234776,7.05855046 L56.2637803,7.05855046 C58.3646461,7.05855046 59.5239535,6.11929446 59.5239535,4.36639068 C59.5239535,2.6324792 58.3646461,1.67552582 56.2637803,1.67552582 L54.234776,1.67552582 L54.234776,7.05855046 Z M60.9728712,4.36639068 C60.9728712,7.02272406 59.2888885,8.3413946 56.2637803,8.3413946 L54.234776,8.3413946 L54.234776,13.290186 L52.8031742,13.290186 L52.8031742,0.393113326 L56.2637803,0.393113326 C59.2339102,0.393113326 60.9728712,1.78386831 60.9728712,4.36639068 L60.9728712,4.36639068 Z" id="Fill-11"></path>
                    <polygon id="Fill-13" points="76.1575465 12.0081188 75.7224816 13.2900997 68.2216158 13.2900997 68.2216158 0.320942552 76.1575465 0.320942552 75.7224816 1.60378669 69.6350357 1.60378669 69.6350357 6.2094216 75.0159881 6.2094216 74.5809232 7.47456836 69.6350357 7.47456836 69.6350357 12.0081188"></polygon>
                    <path d="M84.6553387,6.31793674 L87.0462478,6.31793674 C88.8046894,6.31793674 90.2362911,5.79349003 90.2362911,3.98749411 C90.2362911,2.16293753 88.8046894,1.65705148 87.0462478,1.65705148 L84.6553387,1.65705148 L84.6553387,6.31793674 Z M91.6830444,3.98749411 C91.6830444,6.17333621 90.489105,7.09489484 88.8592348,7.43761968 L92.3917024,12.604391 L91.3046894,13.487965 L87.3553387,7.60078088 L87.0462478,7.60078088 L84.6553387,7.60078088 L84.6553387,13.2898407 L83.223737,13.2898407 L83.223737,0.375070633 L87.0462478,0.375070633 C89.5098842,0.375070633 91.6830444,1.04325459 91.6830444,3.98749411 L91.6830444,3.98749411 Z" id="Fill-15"></path>
                    <polygon id="Fill-17" points="104.586508 1.65709465 104.586508 13.2898838 103.172655 13.2898838 103.172655 1.65709465 98.7354253 1.65709465 99.1683258 0.375113797 109.023737 0.375113797 108.589105 1.65709465"></polygon>
                    <polygon id="Fill-19" points="121.418066 13.2899702 119.986464 13.2899702 119.986464 7.47443886 115.404213 0.645840527 116.816334 0.21247057 120.71114 6.06512321 124.588196 0.21247057 126.000317 0.645840527 121.418066 7.47443886"></polygon>
                    <path d="M4.28339069,28.9391579 C2.16823917,28.9391579 0.442265148,27.219059 0.442265148,25.1096178 C0.442265148,23.0010399 2.16823917,21.2800777 4.28339069,21.2800777 C4.28339069,21.2800777 5.43360714,21.2287121 6.51239502,21.9970374 L6.51239502,23.0308233 C6.51239502,23.0308233 5.72105303,22.016893 4.28339069,22.016893 C2.5989751,22.016893 1.26434307,23.4300934 1.26434307,25.1096178 C1.26434307,26.7995016 2.5989751,28.2014794 4.28339069,28.2014794 C5.63880194,28.2014794 6.42018723,27.3010713 6.50200541,27.1983401 L6.50200541,28.2325577 C5.43360714,28.9905235 4.28339069,28.9391579 4.28339069,28.9391579" id="Fill-21"></path>
                    <polygon id="Fill-23" points="20.1449491 28.0586054 19.8994946 28.7755651 15.6471136 28.7755651 15.6471136 21.5874078 16.4479794 21.3413711 16.4479794 28.0586054"></polygon>
                    <path d="M29.0749924,21.6075655 L29.8771569,21.3619604 L29.8771569,25.7750824 C29.8771569,26.8403783 30.1433907,28.273866 31.9516158,28.273866 C33.7585422,28.273866 33.9429578,26.8403783 33.9429578,25.7750824 L33.9429578,21.6075655 L34.7442565,21.3619604 L34.7442565,25.7750824 C34.7342998,27.4744624 34.2819188,28.990394 31.9516158,28.990394 C29.6200141,28.990394 29.0654686,27.4848218 29.0749924,25.7750824 L29.0749924,21.6075655 Z" id="Fill-25"></path>
                    <path d="M44.9900141,27.976809 L46.7047327,27.976809 C47.5675032,27.976809 48.2051656,27.3617172 48.2051656,26.604183 C48.2051656,25.8470805 47.5675032,25.2324203 46.7047327,25.2324203 L44.9900141,25.2324203 L44.9900141,27.976809 Z M44.9900141,24.4338801 L46.446724,24.4338801 C47.3618755,24.4338801 47.8748626,24.0756161 47.8748626,23.3077225 C47.8748626,22.5497567 47.3618755,22.2316355 46.446724,22.2316355 L44.9900141,22.2316355 L44.9900141,24.4338801 Z M48.6865509,23.3077225 C48.6865509,24.1062628 48.3887154,24.5564668 47.8025682,24.8227908 C48.5627413,25.1296892 49.0151223,25.6627688 49.0151223,26.604183 C49.0151223,27.976809 47.9475898,28.7757809 46.446724,28.7757809 L44.1878496,28.7757809 L44.1878496,21.4235991 L46.446724,21.4235991 C47.9475898,21.4235991 48.6865509,22.0887616 48.6865509,23.3077225 L48.6865509,23.3077225 Z" id="Fill-27"></path>
                    <path d="M54.5167673,21.8697457 L54.9059448,21.8697457 C55.1929578,21.8697457 55.4262911,21.7851436 55.4262911,21.4903312 C55.4262911,21.1933605 55.1929578,21.110485 54.9059448,21.110485 L54.5167673,21.110485 L54.5167673,21.8697457 Z M55.661789,21.4903312 C55.661789,21.846437 55.4665509,21.9970805 55.20075,22.0531942 L55.7773734,22.8936038 L55.5985855,23.0377727 L54.9561613,22.0786611 L54.9059448,22.0786611 L54.5167673,22.0786611 L54.5167673,23.0058311 L54.2847327,23.0058311 L54.2847327,20.9028645 L54.9059448,20.9028645 C55.3072435,20.9028645 55.661789,21.0120703 55.661789,21.4903312 L55.661789,21.4903312 Z" id="Fill-29"></path>
                    <path d="M55.0300141,19.4931604 C53.6603171,19.4931604 52.5460314,20.6042105 52.5460314,21.9703618 C52.5460314,23.3356498 53.6603171,24.4466999 55.0300141,24.4466999 C56.4005768,24.4466999 57.5161613,23.3356498 57.5161613,21.9703618 C57.5161613,20.6042105 56.4005768,19.4931604 55.0300141,19.4931604 M55.0300141,24.8438118 C53.4412695,24.8438118 52.1481959,23.554493 52.1481959,21.9703618 C52.1481959,20.3857989 53.4412695,19.0964801 55.0300141,19.0964801 C56.6191916,19.0964801 57.9122651,20.3857989 57.9122651,21.9703618 C57.9122651,23.554493 56.6191916,24.8438118 55.0300141,24.8438118" id="Fill-31"></path>
                </g>
            </g>
        </g>
    </g>
</svg>